<?xml version="1.0" standalone="no"?>
<!DOCTYPE svg PUBLIC "-//W3C//DTD SVG 20010904//EN"
 "http://www.w3.org/TR/2001/REC-SVG-20010904/DTD/svg10.dtd">
<svg version="1.0" xmlns="http://www.w3.org/2000/svg"
 width="611.000000pt" height="187.000000pt" viewBox="0 0 611.000000 187.000000"
 preserveAspectRatio="xMidYMid meet">

<g transform="translate(0.000000,187.000000) scale(0.100000,-0.100000)"
fill="#000000" stroke="none">
<path d="M839 1823 c0 -27 -3 -57 -5 -68 -7 -30 6 -125 17 -125 5 0 9 53 9
120 0 73 -4 120 -10 120 -5 0 -10 -21 -11 -47z"/>
<path d="M1291 1671 c-40 -51 -71 -95 -67 -98 9 -9 31 13 92 92 82 109 61 113
-25 6z"/>
<path d="M276 1672 c-5 -8 115 -175 134 -187 6 -4 14 -4 17 -1 5 5 -132 196
-142 196 -2 0 -6 -4 -9 -8z"/>
<path d="M1655 1395 c-5 -2 -50 -15 -99 -30 -55 -16 -85 -30 -79 -36 12 -12
195 42 201 59 4 12 -3 14 -23 7z"/>
<path d="M6 1230 c22 -22 304 -60 304 -41 0 13 -13 16 -153 36 -128 18 -165
19 -151 5z"/>
<path d="M837 1222 c-11 -12 -17 -36 -17 -70 0 -42 -4 -53 -21 -62 -34 -19
-43 -8 -40 49 3 56 -10 81 -40 81 -40 0 -46 -64 -12 -118 8 -13 13 -35 11 -50
-3 -24 -7 -27 -41 -28 -44 -1 -61 -14 -55 -40 3 -16 13 -19 53 -19 l50 0 17
-65 c12 -47 17 -110 17 -231 1 -195 -3 -225 -33 -234 -36 -12 79 -26 164 -19
102 7 128 13 109 24 -11 7 -15 41 -17 152 -3 128 11 369 24 402 4 9 18 12 47
9 34 -4 46 -1 62 17 39 43 -16 76 -76 45 -29 -15 -33 -15 -47 -1 -15 15 -14
20 8 60 20 38 22 48 12 70 -13 29 -43 34 -62 11 -7 -8 -12 -37 -11 -64 1 -55
-13 -66 -57 -47 -24 10 -24 15 -1 74 21 51 -11 90 -44 54z m14 -65 c-8 -8 -11
-4 -11 14 0 33 14 47 18 19 2 -12 -1 -27 -7 -33z m-116 22 c4 -5 4 -22 0 -37
-7 -25 -8 -25 -15 -7 -17 41 -4 76 15 44z m255 -3 c0 -22 -11 -46 -21 -46 -10
0 -12 43 -2 53 11 12 23 8 23 -7z m-124 -102 c15 -11 36 -15 57 -11 25 4 36 0
49 -18 17 -22 17 -28 2 -84 -11 -44 -15 -121 -17 -290 l-2 -230 -61 -6 c-33
-4 -71 -5 -85 -3 l-24 3 3 180 c4 192 -6 284 -37 347 -25 51 -11 98 30 98 15
0 32 7 39 15 15 19 15 19 46 -1z m229 -34 c-3 -5 -18 -10 -33 -10 -21 0 -24 2
-12 10 20 13 53 13 45 0z"/>
<path d="M2895 1170 c-50 -20 -81 -77 -122 -220 -27 -95 -42 -253 -25 -264 26
-16 41 7 53 80 l12 74 58 0 c85 0 89 -3 89 -70 0 -68 18 -97 51 -80 18 10 19
23 19 176 0 91 -5 185 -11 209 -17 67 -78 114 -124 95z m50 -84 c9 -13 18 -58
22 -106 l6 -83 -66 5 c-36 2 -69 6 -72 9 -8 9 32 129 55 167 24 38 34 40 55 8z"/>
<path d="M3169 1150 c-44 -23 -67 -56 -74 -107 -8 -55 20 -95 94 -132 33 -17
67 -41 75 -53 37 -53 5 -98 -70 -98 -49 0 -67 17 -62 61 2 22 -2 35 -15 43
-28 17 -61 -27 -53 -73 13 -82 104 -123 194 -86 138 58 115 187 -48 270 -43
22 -50 30 -50 54 0 20 9 37 31 55 37 32 46 32 76 4 21 -20 25 -20 39 -6 22 21
10 54 -26 73 -38 20 -67 18 -111 -5z"/>
<path d="M1965 1148 c-2 -7 -6 -110 -10 -229 -6 -200 -5 -217 11 -223 40 -15
47 12 52 217 5 216 2 247 -29 247 -11 0 -21 -6 -24 -12z"/>
<path d="M2065 1142 c-3 -11 -1 -70 5 -133 5 -63 10 -151 10 -197 0 -112 6
-122 78 -122 128 0 198 77 196 215 -1 75 -19 128 -60 182 -35 46 -74 63 -154
69 -60 3 -69 2 -75 -14z m151 -71 c41 -25 67 -82 72 -157 5 -77 -16 -126 -63
-148 -69 -33 -72 -29 -80 92 -3 59 -10 135 -14 170 l-8 62 31 0 c17 0 45 -9
62 -19z"/>
<path d="M2646 1148 c-3 -7 -7 -108 -9 -225 -5 -176 -3 -214 9 -224 11 -9 18
-8 33 5 15 14 19 38 24 159 3 78 2 176 -1 217 -6 68 -9 75 -30 78 -12 2 -24
-3 -26 -10z"/>
<path d="M2400 1136 c-8 -11 -11 -69 -8 -211 3 -194 3 -197 27 -216 20 -16 37
-19 95 -17 68 3 71 4 71 28 0 22 -5 25 -40 28 -83 5 -85 7 -85 67 l0 55 44 0
c46 0 72 19 62 45 -4 11 -20 15 -56 15 l-50 0 0 43 c0 23 -3 59 -7 80 l-6 39
74 -4 c73 -3 74 -3 77 23 4 33 -14 39 -114 39 -50 0 -75 -4 -84 -14z"/>
<path d="M1450 923 c0 -17 221 -126 232 -115 6 6 -23 28 -82 61 -90 51 -150
73 -150 54z"/>
<path d="M245 754 c-87 -51 -112 -70 -102 -80 8 -8 197 104 197 117 0 15 -13
11 -95 -37z"/>
<path d="M1300 691 c0 -12 95 -98 134 -122 63 -39 42 -4 -38 62 -85 70 -96 76
-96 60z"/>
<path d="M940 298 c-25 -5 -87 -7 -137 -5 -92 4 -123 -4 -62 -17 78 -15 260 1
275 25 6 11 -15 10 -76 -3z"/>
<path d="M720 162 c0 -31 203 -40 274 -12 48 18 22 23 -55 10 -65 -11 -167 -8
-205 7 -8 3 -14 0 -14 -5z"/>
<path d="M966 78 c-22 -12 -135 -14 -183 -4 -37 9 -46 -8 -10 -18 45 -12 183
-6 203 8 24 18 16 28 -10 14z"/>
</g>
</svg>
